<?xml version="1.0" standalone="no"?>
<!DOCTYPE svg PUBLIC "-//W3C//DTD SVG 20010904//EN"
 "http://www.w3.org/TR/2001/REC-SVG-20010904/DTD/svg10.dtd">
<svg version="1.0" xmlns="http://www.w3.org/2000/svg"
 width="509.000000pt" height="509.000000pt" viewBox="0 0 509.000000 509.000000"
 preserveAspectRatio="xMidYMid meet">
<metadata>
Created by potrace 1.14, written by Peter Selinger 2001-2017
</metadata>
<g transform="translate(0.000000,509.000000) scale(0.100000,-0.100000)"
fill="#000000" stroke="none">
<path d="M2230 5069 c-74 -10 -148 -21 -165 -24 -334 -66 -653 -197 -938 -387
-494 -330 -873 -852 -1031 -1423 -67 -244 -91 -421 -91 -685 0 -214 6 -292 40
-480 12 -69 65 -267 93 -350 263 -764 865 -1353 1635 -1599 259 -83 460 -114
742 -115 220 -1 304 4 445 29 47 8 99 17 115 20 17 3 86 21 155 40 203 56 406
141 578 241 719 420 1173 1116 1269 1944 9 83 10 422 1 520 -9 96 -45 296 -72
395 -209 780 -776 1420 -1519 1714 -175 70 -436 139 -583 156 -28 3 -61 8 -75
11 -13 3 -123 7 -244 9 -172 2 -249 -1 -355 -16z"/>
</g>
</svg>
